<svg xmlns="http://www.w3.org/2000/svg" width="400" height="400" viewBox="0 0 400 400"><rect width="100%" height="100%" fill="#06B6D4"/><path fill="#ffffff" d="M180.635 234.57q1.99 0 3.53 1.54l9.59 10.41q-7.96 9.86-19.59 15.11t-27.92 5.25q-14.57 0-26.2-4.98t-19.86-13.85q-8.24-8.86-12.63-21.17T83.165 200q0-14.75 4.71-27.02 4.7-12.26 13.26-21.13 8.55-8.87 20.4-13.8 11.86-4.93 26.25-4.93 14.3 0 25.38 4.71 11.09 4.7 18.87 12.3l-8.14 11.32q-.72 1.08-1.86 1.9-1.13.81-3.12.81-1.36 0-2.8-.77-1.45-.77-3.17-1.9t-3.98-2.49q-2.27-1.36-5.25-2.49-2.99-1.13-6.93-1.9-3.93-.77-9.09-.77-8.78 0-16.06 3.13-7.29 3.12-12.54 9.05-5.25 5.92-8.14 14.48-2.9 8.55-2.9 19.5 0 11.04 3.12 19.64 3.12 8.59 8.46 14.48 5.34 5.88 12.58 9t15.57 3.12q4.98 0 9-.54 4.03-.54 7.43-1.72 3.39-1.18 6.42-3.03 3.03-1.86 6.02-4.57.9-.81 1.9-1.31t2.08-.5m92.94-37.47 43.26 68.33h-24.25q-2.53 0-4.03-1.27-1.49-1.26-2.4-2.89l-30.31-50.23q-.73 2.26-1.72 3.89l-29.05 46.34q-1.09 1.54-2.49 2.85t-3.67 1.31h-22.71l43.44-67.33-41.72-63.53h24.25q2.53 0 3.67.68 1.13.67 2.12 2.21l29.78 47.97q.9-2.26 2.17-4.53l27.33-42.98q1-1.72 2.17-2.54 1.18-.81 2.99-.81h23.26z"/></svg>