<svg xmlns="http://www.w3.org/2000/svg" width="400" height="400" viewBox="0 0 400 400"><rect width="100%" height="100%" fill="#34D399"/><path fill="#ffffff" d="M224.8 199.2q0 15.9-5.3 29.2t-14.9 22.9-23.1 14.9-30 5.3H96.4V126.9h55.1q16.5 0 30 5.35t23.1 14.9T219.5 170t5.3 29.2m-27.6 0q0-11.9-3.15-21.35t-9.1-16-14.4-10.05-19.05-3.5h-28.1v101.8h28.1q10.6 0 19.05-3.5t14.4-10.05 9.1-16 3.15-21.35m106.4-72.3v93.2q0 12.2-3 22t-8.95 16.7-14.85 10.6-20.7 3.7q-5.4 0-10.6-.65t-10.9-2.05q.3-4 .7-8t.7-8q.3-2.2 1.75-3.55t4.15-1.35q1.7 0 4.45.7t6.95.7q5.7 0 10.1-1.65t7.35-5.25 4.45-9.35 1.5-13.95v-93.8z"/></svg>