<svg xmlns="http://www.w3.org/2000/svg" width="400" height="400" viewBox="0 0 400 400"><rect width="100%" height="100%" fill="#06B6D4"/><path fill="#ffffff" d="M153.295 199.83h41.52v50.6q-9.52 7.01-20.29 10.25t-23.05 3.24q-15.31 0-27.72-4.75-12.42-4.76-21.2-13.24t-13.53-20.24q-4.76-11.76-4.76-25.69 0-14.1 4.58-25.86 4.59-11.77 13.02-20.24 8.44-8.48 20.46-13.15t26.99-4.67q7.61 0 14.23 1.21 6.61 1.21 12.28 3.33 5.66 2.12 10.34 5.14 4.67 3.03 8.56 6.67l-6.66 10.55q-1.56 2.51-4.07 3.07t-5.45-1.26q-2.85-1.64-5.71-3.28-2.85-1.65-6.35-2.86-3.51-1.21-7.87-1.99-4.37-.77-10.08-.77-9.26 0-16.74 3.11t-12.76 8.91q-5.27 5.79-8.13 13.93-2.85 8.13-2.85 18.16 0 10.73 3.07 19.16t8.65 14.27 13.45 8.91 17.56 3.07q6.92 0 12.37-1.47t10.64-3.98V217.3h-15.75q-2.25 0-3.5-1.25-1.25-1.26-1.25-3.07zm149.9 33.21q1.9 0 3.37 1.47l9.17 9.95q-7.61 9.43-18.72 14.45-11.12 5.01-26.69 5.01-13.93 0-25.04-4.75-11.12-4.76-18.99-13.24t-12.06-20.24q-4.2-11.76-4.2-25.69 0-14.1 4.5-25.82t12.67-20.2q8.17-8.47 19.51-13.19 11.33-4.71 25.08-4.71 13.67 0 24.26 4.49 10.6 4.5 18.04 11.77l-7.79 10.81q-.69 1.04-1.77 1.82t-2.98.78q-1.3 0-2.68-.74-1.39-.73-3.03-1.82-1.65-1.08-3.81-2.37-2.16-1.3-5.02-2.38-2.85-1.08-6.61-1.82-3.77-.73-8.7-.73-8.39 0-15.35 2.98t-11.98 8.65-7.78 13.84q-2.77 8.17-2.77 18.64 0 10.55 2.98 18.77 2.99 8.22 8.09 13.84t12.02 8.61q6.92 2.98 14.88 2.98 4.76 0 8.61-.52t7.09-1.64q3.24-1.13 6.14-2.9t5.75-4.37q.87-.78 1.82-1.25.95-.48 1.99-.48"/></svg>