<svg xmlns="http://www.w3.org/2000/svg" width="400" height="400" viewBox="0 0 400 400"><rect width="100%" height="100%" fill="#5B21B6"/><path fill="#ffffff" d="M191.55 126.9v93.2q0 12.2-3 22t-8.95 16.7-14.85 10.6-20.7 3.7q-5.4 0-10.6-.65t-10.9-2.05q.3-4 .7-8t.7-8q.3-2.2 1.75-3.55t4.15-1.35q1.7 0 4.45.7t6.95.7q5.7 0 10.1-1.65t7.35-5.25 4.45-9.35 1.5-13.95v-93.8zm85.9 0v93.2q0 12.2-3 22t-8.95 16.7-14.85 10.6-20.7 3.7q-5.4 0-10.6-.65t-10.9-2.05q.3-4 .7-8t.7-8q.3-2.2 1.75-3.55t4.15-1.35q1.7 0 4.45.7t6.95.7q5.7 0 10.1-1.65t7.35-5.25 4.45-9.35 1.5-13.95v-93.8z"/></svg>