<svg xmlns="http://www.w3.org/2000/svg" width="400" height="400" viewBox="0 0 400 400"><rect width="100%" height="100%" fill="#F97316"/><path fill="#ffffff" d="M116.4 197.025h14.28q6.46 0 11.26-1.62 4.81-1.61 7.91-4.46t4.63-6.76 1.53-8.58q0-9.35-6.16-14.37-6.16-5.01-18.83-5.01H116.4zm42.33 19.04 30.77 45.39h-20.65q-5.87 0-8.5-4.59l-25.84-39.36q-1.45-2.21-3.19-3.14-1.74-.94-5.14-.94h-9.78v48.03H93.54v-122.91h37.48q12.5 0 21.46 2.59 8.97 2.59 14.71 7.27 5.74 4.67 8.46 11.18 2.72 6.5 2.72 14.32 0 6.21-1.83 11.73t-5.27 10.03q-3.44 4.5-8.5 7.9t-11.52 5.36q2.21 1.27 4.08 3.02 1.87 1.74 3.4 4.12m124.78-77.52h22.95v122.91h-22.95v-53.72H225.8v53.72h-22.95v-122.91h22.95v52.87h57.71z"/></svg>