<svg xmlns="http://www.w3.org/2000/svg" width="400" height="400" viewBox="0 0 400 400"><rect width="100%" height="100%" fill="#1D4ED8"/><path fill="#ffffff" d="m167.89 196.845 47.08 74.37h-26.39q-2.76 0-4.39-1.38-1.62-1.38-2.61-3.15l-32.99-54.67q-.79 2.46-1.88 4.24l-31.61 50.43q-1.19 1.67-2.71 3.1-1.53 1.43-3.99 1.43H83.67l47.28-73.28-45.4-69.15h26.39q2.76 0 3.99.74t2.32 2.41l32.4 52.21q.99-2.47 2.37-4.93l29.74-46.79q1.09-1.87 2.37-2.75 1.28-.89 3.25-.89h25.31zm145.88-54.66-6.6 12.5q-1.18 2.07-2.51 3.01-1.33.93-3.3.93-2.07 0-4.48-1.52-2.42-1.53-5.77-3.4-3.34-1.87-7.83-3.4-4.48-1.53-10.58-1.53-5.52 0-9.66 1.33-4.13 1.33-6.94 3.7-2.81 2.36-4.19 5.66t-1.38 7.24q0 5.03 2.81 8.37 2.81 3.35 7.44 5.72 4.63 2.36 10.54 4.23t12.11 3.99q6.21 2.12 12.12 4.93 5.91 2.8 10.54 7.09 4.63 4.28 7.43 10.49 2.81 6.2 2.81 15.07 0 9.65-3.3 18.07-3.3 8.43-9.65 14.68-6.35 6.26-15.52 9.85-9.16 3.6-20.98 3.6-6.79 0-13.39-1.33t-12.66-3.8q-6.06-2.46-11.38-5.91-5.32-3.44-9.45-7.68l7.78-12.71q.98-1.37 2.56-2.31t3.35-.94q2.46 0 5.32 2.02 2.85 2.02 6.79 4.48 3.94 2.47 9.21 4.49t12.66 2.02q11.33 0 17.53-5.37 6.21-5.37 6.21-15.42 0-5.61-2.81-9.16-2.8-3.54-7.43-5.96-4.63-2.41-10.54-4.09-5.91-1.67-12.02-3.64t-12.02-4.73-10.54-7.19-7.43-11.08q-2.81-6.65-2.81-16.4 0-7.78 3.1-15.17t9.01-13.1 14.58-9.16 19.9-3.45q12.61 0 23.25 3.94 10.63 3.94 18.12 11.04"/></svg>