<svg xmlns="http://www.w3.org/2000/svg" width="400" height="400" viewBox="0 0 400 400"><rect width="100%" height="100%" fill="#06B6D4"/><path fill="#ffffff" d="m173.375 148.665-37.42 62.91v39.76h-19.03v-39.76l-37.41-62.91h16.82q2.49 0 3.95 1.21 1.45 1.21 2.44 3.05l18.75 34.3q1.63 3.05 2.87 5.75 1.25 2.7 2.24 5.39.92-2.69 2.13-5.39t2.77-5.75l18.67-34.3q.78-1.56 2.35-2.91 1.56-1.35 3.97-1.35zm132.13 0h14.98l-31.88 102.67h-17.25l-22.44-70.15q-.92-2.55-1.7-6.25-.43 1.78-.85 3.34-.43 1.56-.92 2.91l-22.65 70.15h-17.33l-31.81-102.67h15.98q2.48 0 4.15 1.18 1.67 1.17 2.24 3.15l17.46 61.42q.57 2.27 1.11 4.93.53 2.67 1.1 5.58.56-2.98 1.24-5.61.67-2.63 1.45-4.9l20.17-61.42q.57-1.63 2.23-2.98 1.67-1.35 4.09-1.35h5.61q2.48 0 4.04 1.21t2.35 3.12l20.09 61.42q1.49 4.4 2.7 10.15.92-5.61 2.06-10.15l17.46-61.42q.43-1.77 2.17-3.05t4.15-1.28"/></svg>