<svg xmlns="http://www.w3.org/2000/svg" width="400" height="400" viewBox="0 0 400 400"><rect width="100%" height="100%" fill="#DC2626"/><path fill="#ffffff" d="m199.95 133.845-48.22 81.07v51.24h-24.52v-51.24l-48.22-81.07h21.68q3.21 0 5.08 1.56 1.88 1.55 3.16 3.93l24.15 44.2q2.11 3.93 3.71 7.41 1.6 3.47 2.88 6.95 1.19-3.48 2.75-6.95 1.55-3.48 3.57-7.41l24.06-44.2q1.01-2.01 3.02-3.75t5.12-1.74zm77.32 63.23 43.74 69.08h-24.53q-2.56 0-4.07-1.28t-2.42-2.93l-30.66-50.78q-.73 2.29-1.73 3.93l-29.38 46.85q-1.09 1.56-2.51 2.88-1.42 1.33-3.71 1.33h-22.96l43.92-68.08-42.19-64.23h24.53q2.56 0 3.7.69 1.15.68 2.15 2.24l30.11 48.49q.91-2.28 2.19-4.57l27.63-43.46q1.01-1.74 2.2-2.57 1.19-.82 3.02-.82h23.52z"/></svg>